<svg width="492" height="492" viewBox="0 0 492 492" fill="none" xmlns="http://www.w3.org/2000/svg">
<path d="M249.413 250.964C180.436 251.418 122.609 194.536 123.819 123.443C124.953 55.5628 179.907 -0.52542 250.471 0.00371347C320.77 0.532847 374.817 58.1328 374.893 125.484C374.968 195.141 317.406 251.569 249.413 250.964ZM332.298 113.238C332.109 106.284 330.408 97.7045 327.649 89.3139C324.474 79.7895 320.052 70.9832 312.531 64.0289C304.594 56.7722 293.633 55.2226 284.222 60.4006C276.172 64.8226 271.372 72.0415 267.516 80.0163C262.414 90.6368 259.995 101.975 259.05 113.654C258.521 120.382 259.315 126.958 262.15 133.194C265.324 140.262 270.389 145.629 276.663 150.127C281.614 153.642 284.146 158.555 284.222 164.791C284.26 169.402 284.487 174.013 284.789 178.624C285.016 182.819 285.129 187.015 285.847 191.134C286.716 195.821 291.743 199.374 296.241 198.996C301.494 198.58 305.727 194.271 305.954 189.131C306.332 181.459 306.824 173.749 307.05 166.076C307.239 158.668 310.376 153.188 316.424 148.804C327.724 140.564 333.167 129.264 332.298 113.238ZM195.176 85.2321C195.176 91.7706 195.214 98.2714 195.138 104.81C195.101 108.363 192.417 111.273 189.242 111.386C185.992 111.538 183.082 108.93 183.044 105.264C183.044 99.9344 183.233 94.6431 183.724 89.3517C184.216 83.9092 185.198 78.5045 185.841 73.0998C186.446 67.9218 182.553 63.1974 177.413 62.6305C172.839 62.1391 168.455 65.9565 167.85 71.0588C167.132 77.3328 166.074 83.5691 165.809 89.8809C165.356 99.7454 164.713 109.723 165.394 119.55C166.338 132.892 172.99 143.475 184.14 151.034C189.507 154.662 192.606 159.727 193.022 166.19C193.513 173.862 193.74 181.572 194.08 189.282C194.269 193.138 197.142 197.106 200.657 198.316C204.663 199.714 208.518 198.693 211.39 195.594C213.583 193.213 214.225 190.341 214.338 187.279C214.527 181.648 214.603 175.979 214.868 170.347C214.981 167.966 215.246 165.585 215.813 163.279C217.06 157.988 220.537 154.284 224.997 151.412C232.064 146.838 236.864 140.489 240.19 132.816C243.214 125.786 243.516 118.303 243.441 110.895C243.365 101.711 242.723 92.451 242.042 83.2667C241.702 78.6935 240.871 74.1202 240.039 69.5848C239.321 65.8053 235.504 62.7439 231.838 62.5171C228.285 62.3281 224.959 64.8226 223.296 68.3376C221.633 71.8525 222.842 75.2163 223.145 78.6557C223.863 87.4242 224.619 96.1927 225.035 104.999C225.11 106.624 223.976 108.627 222.842 109.95C221.331 111.727 219.101 111.802 216.946 110.857C214.338 109.723 213.318 107.531 213.318 104.886C213.28 93.0557 213.318 81.2258 213.28 69.358C213.242 67.9218 213.091 66.4478 212.789 65.0494C211.731 60.1738 207.762 56.9612 203.34 57.3769C198.653 57.7927 195.176 61.8368 195.176 66.9769C195.138 73.062 195.176 79.147 195.176 85.2321Z" fill="#ED2836"/>
<path d="M60.8141 367.071C42.5968 382.303 17.0094 373.912 7.52275 361.289C-3.3245 346.851 -2.34182 325.534 9.82826 312.684C22.0361 299.834 46.9054 297.49 60.7007 309.774V301.837H79.4472V304.936C79.4472 327.991 79.4472 351.046 79.4094 374.101C79.4094 388.388 72.5306 398.555 59.907 404.678C44.2598 412.237 20.6377 408.268 8.01409 396.363C7.33377 395.72 6.50228 395.229 6.80464 394.889C10.5086 390.845 14.1369 386.763 17.9164 382.794C18.181 382.53 19.5794 382.983 20.1464 383.437C28.7637 390.24 38.4393 392.092 48.8708 389.182C56.5054 387.065 60.7763 380.753 60.8141 372.854C60.8519 371.04 60.8141 369.188 60.8141 367.071ZM59.8314 338.12C60.2472 333.849 59.8692 329.503 56.6566 325.837C53.8976 322.7 50.4204 320.923 46.5275 319.676C38.8172 317.257 28.7637 320.092 23.7747 325.95C19.7306 330.75 19.0881 336.382 19.9196 342.164C21.0535 350.139 25.7023 355.355 33.6771 357.169C36.1338 357.736 38.7794 358.076 41.2739 357.887C47.7747 357.434 53.5952 355.393 57.6015 349.723C60.0582 346.246 60.0204 342.353 59.8314 338.12ZM472.518 277.27H491.945V373.27H474.257V366.542C465.715 374.593 455.888 376.331 445.343 375.197C434.685 374.064 425.765 369.528 419.227 360.835C408.909 347.04 410.231 325.875 422.364 312.835C433.702 300.665 456.568 296.999 472.518 308.867V277.27ZM472.745 338.612H472.594C472.594 337.327 472.556 336.042 472.594 334.757C472.82 329.768 470.704 325.799 466.584 323.342C463.447 321.453 459.857 319.827 456.304 319.147C447.951 317.635 439.145 320.734 434.685 328.067C429.129 337.138 431.926 350.101 440.694 355.128C446.742 358.568 453.205 358.983 459.781 357.131C465.79 355.431 470.515 352.067 472.178 345.755C472.783 343.487 472.594 340.993 472.745 338.612ZM131.34 301.686C145.438 301.95 157.343 307.242 165.167 319.941C168.946 326.064 170.307 332.867 170.08 340.048C169.853 347.871 167.435 354.826 162.71 360.949C156.776 368.583 148.839 373.005 139.428 374.706C127.258 376.86 115.768 375.084 105.639 367.601C89.2739 355.544 86.3637 331.317 99.2519 315.745C107.453 305.805 118.301 301.799 131.34 301.686ZM150.464 338.649C151.107 327.386 142.225 318.807 131.302 318.845C118.868 318.882 110.817 326.668 110.817 338.801C110.817 350.29 119.17 358.605 130.887 358.454C143.699 358.303 151.031 348.741 150.464 338.649ZM318.087 338.423C318.275 358.492 302.288 372.854 284.713 375.046C271.976 376.596 260.562 373.988 250.849 365.371C236.902 352.974 234.748 331.279 246.276 316.653C254.893 305.73 266.458 301.119 280.291 301.686C289.4 302.101 297.564 304.785 304.669 310.53C310.679 315.405 314.798 321.604 316.65 329.125C317.406 332.186 317.633 335.323 318.087 338.423ZM298.206 338.612C298.66 327.122 290.118 319.26 279.8 318.807C265.967 318.278 258.635 327.651 258.521 338.234C258.408 350.026 266.572 358.379 278.364 358.341C290.798 358.265 298.546 349.686 298.206 338.612ZM325.721 336.117C325.381 320.243 339.063 305.465 356.26 302.442C371.718 299.758 385.551 303.16 396.285 315.368C400.783 320.508 403.201 326.631 404.222 333.434C405.545 342.353 403.768 350.517 399.006 357.963C392.657 367.903 383.283 373.308 371.642 374.971C360.342 376.596 349.835 374.631 340.537 367.79C330.635 360.495 325.721 350.631 325.721 336.117ZM345.337 338.498C345.299 350.29 353.274 358.265 365.142 358.341C376.669 358.416 385.098 350.101 385.098 338.574C385.135 327.349 376.972 319.109 366.2 318.769C353.765 318.429 344.997 326.895 345.337 338.498ZM212.184 320.168V373.232H192.644V320.357C187.693 320.357 183.006 320.281 178.32 320.394C176.505 320.432 175.939 319.865 175.939 318.051C176.052 313.289 175.976 308.489 175.976 303.462H192.757C192.757 300.098 192.379 296.886 192.833 293.824C194.118 284.451 199.939 278.404 209.463 277.345C216.984 276.514 224.657 276.816 232.253 276.741C232.783 276.741 233.765 277.61 233.765 278.139C233.879 283.166 233.841 288.193 233.841 293.597C228.436 293.597 223.334 293.56 218.231 293.597C213.696 293.635 212.184 295.223 212.184 299.871V303.349H238.225V320.168H212.184Z" fill="black"/>
<path d="M278.704 458.498C277.91 472.747 271.561 482.498 259.39 488.432C255.838 490.133 252.55 488.772 250.924 485.144C249.715 482.347 251.113 479.172 254.439 477.698C263.094 473.843 266.874 465.944 266.723 458.536C266.496 449.503 261.091 442.624 252.587 439.638C244.386 436.804 235.844 439.563 229.797 447.008C225.148 452.753 224.732 462.656 228.814 469.27C231.082 472.936 234.068 475.733 237.998 477.585C241.702 479.323 242.987 482.536 241.513 485.711C239.964 488.961 236.335 490.019 232.707 488.167C222.956 483.254 216.568 475.619 214.603 464.734C211.542 447.575 222.238 432.193 237.696 427.922C255.951 422.895 273.488 434.423 277.532 451.09C278.213 453.736 278.401 456.495 278.704 458.498Z" fill="#00AA11"/>
<path d="M325.305 441.075C325.381 439.714 325.457 438.618 325.57 437.371H334.981C335.057 438.051 335.17 438.731 335.17 439.374C335.208 450.523 335.246 461.673 335.17 472.785C335.094 479.664 332.449 485.333 326.326 488.772C318.616 493.119 306.635 491.758 299.756 485.975C299.113 485.446 298.471 484.879 297.715 484.199C299.756 482.158 301.759 480.193 303.989 478.038C307.39 480.797 311.246 482.158 315.743 482.045C322.698 481.818 326.099 478.038 325.192 470.668C319.409 475.204 312.984 475.355 306.483 473.201C302.628 471.878 299.567 469.308 297.375 465.679C292.801 458.045 293.973 448.331 300.323 442.435C307.126 436.086 317.406 435.443 325.305 441.075ZM324.89 455.89C324.89 449.427 321.412 445.912 315.025 445.95C309.016 446.026 304.972 449.956 304.783 455.399C304.48 462.542 309.129 465.755 315.252 465.679C321.564 465.566 324.89 462.24 324.89 455.89ZM485.104 437.257C479.321 442.738 474.03 447.727 468.625 452.791C474.105 460.086 479.435 467.191 485.142 474.75C481.249 474.75 478.036 474.864 474.824 474.712C474.068 474.675 473.161 473.843 472.669 473.163C469.683 469.194 466.811 465.15 463.901 461.144C463.409 460.464 462.918 459.821 462.011 458.687C459.932 461.068 457.249 462.958 456.342 465.49C455.397 468.136 456.153 471.386 456.153 474.788H446.817C446.779 473.654 446.666 472.747 446.666 471.84C446.666 457.78 446.742 443.72 446.59 429.698C446.553 426.977 447.384 426.221 449.954 426.486C451.882 426.675 453.847 426.523 456.115 426.523V452.224C459.063 449.579 461.52 447.386 463.938 445.156C466.357 442.927 468.776 440.583 471.233 438.353C471.762 437.862 472.518 437.333 473.161 437.295C476.902 437.219 480.644 437.257 485.104 437.257ZM412.386 459.216C412.99 463.185 416.77 466.208 421.154 466.549C424.858 466.851 428.298 466.322 431.321 463.903C431.812 463.525 432.833 463.223 433.249 463.487C435.29 464.697 437.179 466.171 439.296 467.645C432.757 474.183 425.312 475.96 416.732 473.843C409.778 472.142 404.713 468.212 403.088 461.068C399.535 445.534 411.479 435.254 425.349 437.597C433.362 438.958 438.389 443.645 440.279 451.506C440.846 453.849 440.657 456.382 440.846 459.216H412.386ZM430.981 452.035C430.338 447.386 426.635 445.156 420.398 445.421C415.901 445.648 412.877 448.18 412.65 452.035H430.981ZM360.72 436.728C371.794 437.182 380.033 444.06 380.864 454.794C381.394 462.127 378.181 467.985 371.756 471.953C364.386 476.489 352.669 475.279 346.433 469.232C337.06 460.161 339.932 444.212 351.913 439.185C354.71 438.013 357.772 437.522 360.72 436.728ZM370.773 456.042C370.773 449.956 366.88 445.912 361.022 445.95C354.408 446.026 350.968 450.259 350.742 456.079C350.515 461.635 355.315 466.095 360.909 466.057C366.88 466.019 370.811 462.013 370.773 456.042ZM386.647 437.295H396.436V480.382C396.436 487.223 392.43 491.191 385.589 491.229H377.425V482.385C379.164 482.385 380.789 482.423 382.376 482.347C385.967 482.196 386.647 481.44 386.647 477.887V437.295Z" fill="black"/>
<path d="M234.408 458.649C233.652 453.169 240.606 446.555 246.502 446.933C253.041 447.386 258.446 452.451 258.408 458.99C258.37 465.49 252.739 471.235 246.238 471.046C239.737 470.895 234.03 465.717 234.408 458.649Z" fill="#00AA11"/>
<path d="M8.31647 441.83H18.4078C23.8881 441.83 27.1385 444.93 27.1385 449.881C27.1385 454.945 23.9259 457.893 18.4078 457.893H11.3779V467.985H8.31647V441.83ZM18.2188 454.983C22.2251 454.983 24.0393 453.358 24.0393 449.881C24.0393 446.404 22.1495 444.741 18.2188 444.741H11.3779V454.983H18.2188ZM37.9858 447.613C43.5795 447.613 47.3212 451.846 47.3212 458.082C47.3212 464.319 43.5795 468.552 37.9858 468.552C32.3921 468.552 28.6881 464.319 28.6881 458.082C28.6881 451.846 32.3921 447.613 37.9858 447.613ZM37.9858 450.334C34.055 450.334 31.5984 453.32 31.5984 458.082C31.5984 462.807 34.055 465.83 37.9858 465.83C41.9165 465.83 44.411 462.807 44.411 458.082C44.411 453.32 41.9165 450.334 37.9858 450.334ZM49.1732 448.18H52.0834L55.6739 463.563H55.7495L61.0409 448.18H63.6865L68.9779 463.563H69.0535L72.644 448.18H75.5165L70.7921 467.985H68.033L62.4015 451.808H62.3637L56.6944 467.985H53.9354L49.1732 448.18ZM86.5905 447.613C91.9196 447.613 95.4724 451.619 95.4724 457.44V458.952H80.3921C80.4676 462.769 82.8865 465.906 86.5149 465.906C89.3117 465.906 90.8991 464.886 92.5621 461.938L95.0188 463.374C93.318 466.775 90.4456 468.552 86.5905 468.552C81.1102 468.552 77.444 464.319 77.444 458.082C77.444 451.846 81.2236 447.613 86.5905 447.613ZM92.4865 456.571C92.4488 454.756 91.8818 453.245 90.7858 452.073C89.6897 450.864 88.3291 450.259 86.5905 450.259C83.2267 450.259 80.5432 453.245 80.4676 456.571H92.4865ZM99.5921 448.18H102.389V449.805H102.427C103.183 448.596 104.657 447.84 106.546 447.84C107.151 447.84 107.831 447.953 108.55 448.142L107.907 451.166C107.189 450.939 106.509 450.826 105.942 450.826C103.598 450.826 102.502 452.413 102.502 456.117V467.985H99.5921V448.18ZM119.019 447.613C124.348 447.613 127.901 451.619 127.901 457.44V458.952H112.82C112.896 462.769 115.353 465.906 118.943 465.906C121.778 465.906 123.327 464.886 125.028 461.938L127.447 463.374C125.746 466.775 122.874 468.552 119.019 468.552C113.539 468.552 109.872 464.319 109.872 458.082C109.872 451.846 113.652 447.613 119.019 447.613ZM124.953 456.571C124.915 454.756 124.31 453.245 123.214 452.073C122.156 450.864 120.757 450.259 119.019 450.259C115.693 450.259 112.972 453.245 112.896 456.571H124.953ZM140.184 447.613C142.565 447.613 144.72 448.634 146.005 450.259H146.08V440.697H148.99V467.985H146.194V465.982H146.118C144.833 467.607 142.603 468.552 140.184 468.552C135.044 468.552 131.302 464.243 131.302 458.082C131.302 451.922 135.044 447.613 140.184 447.613ZM146.08 456.155C146.08 452.904 143.472 450.334 140.184 450.334C136.631 450.334 134.213 453.396 134.213 458.082C134.213 462.769 136.631 465.83 140.373 465.83C143.51 465.83 146.08 463.185 146.08 459.972V456.155ZM166.83 465.982V467.985H164.033V440.697H166.943V450.259H167.019C168.342 448.634 170.458 447.613 172.839 447.613C178.017 447.613 181.759 451.922 181.759 458.082C181.759 464.243 178.017 468.552 172.839 468.552C170.42 468.552 168.228 467.607 166.905 465.982H166.83ZM172.839 450.334C169.551 450.334 166.943 452.904 166.943 456.155V459.972C166.943 463.185 169.513 465.83 172.65 465.83C176.392 465.83 178.849 462.769 178.849 458.082C178.849 453.396 176.392 450.334 172.839 450.334ZM190.339 466.284L182.704 448.18H185.803L191.85 462.92H191.926L197.973 448.18H201.072L189.167 476.375H186.143L190.339 466.284Z" fill="black"/>
<path d="M332.298 113.238C332.109 106.284 330.408 97.7045 327.649 89.314C324.474 79.7896 320.052 70.9833 312.531 64.0289C304.594 56.7722 293.633 55.2226 284.222 60.4006C276.172 64.8226 271.372 72.0415 267.516 80.0163C262.414 90.6368 259.995 101.975 259.05 113.654C258.521 120.382 259.315 126.958 262.15 133.194C265.324 140.262 270.389 145.629 276.663 150.127C281.614 153.642 284.146 158.555 284.222 164.791C284.26 169.402 284.487 174.013 284.789 178.624C285.016 182.819 285.129 187.015 285.847 191.134C286.716 195.821 291.743 199.374 296.241 198.996C301.494 198.58 305.727 194.271 305.954 189.131C306.332 181.459 306.824 173.749 307.05 166.076C307.239 158.668 310.376 153.188 316.424 148.804C327.724 140.564 333.167 129.264 332.298 113.238ZM195.176 85.2321C195.176 91.7707 195.214 98.2714 195.138 104.81C195.101 108.363 192.417 111.273 189.242 111.386C185.992 111.538 183.082 108.93 183.044 105.264C183.044 99.9344 183.233 94.6431 183.724 89.3518C184.216 83.9092 185.198 78.5045 185.841 73.0998C186.446 67.9218 182.553 63.1974 177.413 62.6305C172.839 62.1392 168.455 65.9565 167.85 71.0588C167.132 77.3329 166.074 83.5691 165.809 89.8809C165.356 99.7455 164.713 109.723 165.394 119.55C166.338 132.892 172.99 143.475 184.14 151.034C189.507 154.662 192.606 159.727 193.022 166.19C193.513 173.862 193.74 181.572 194.08 189.282C194.269 193.138 197.142 197.106 200.657 198.316C204.663 199.714 208.518 198.693 211.39 195.594C213.583 193.213 214.225 190.341 214.338 187.279C214.527 181.648 214.603 175.979 214.868 170.347C214.981 167.966 215.246 165.585 215.813 163.279C217.06 157.988 220.537 154.284 224.997 151.412C232.064 146.838 236.864 140.489 240.19 132.816C243.214 125.786 243.516 118.303 243.441 110.895C243.365 101.711 242.723 92.451 242.042 83.2667C241.702 78.6935 240.871 74.1203 240.039 69.5848C239.321 65.8053 235.504 62.7439 231.838 62.5171C228.285 62.3281 224.959 64.8226 223.296 68.3376C221.633 71.8525 222.842 75.2163 223.145 78.6557C223.863 87.4242 224.619 96.1927 225.035 104.999C225.11 106.624 223.976 108.627 222.842 109.95C221.331 111.727 219.101 111.802 216.946 110.857C214.338 109.723 213.318 107.531 213.318 104.886C213.28 93.0557 213.318 81.2258 213.28 69.3581C213.242 67.9218 213.091 66.4478 212.789 65.0494C211.731 60.1738 207.762 56.9612 203.34 57.377C198.653 57.7927 195.176 61.8368 195.176 66.977C195.138 73.062 195.176 79.147 195.176 85.2321Z" fill="white"/>
</svg>
