<svg width="167" height="212" viewBox="0 0 167 212" fill="none" xmlns="http://www.w3.org/2000/svg">
<path fill-rule="evenodd" clip-rule="evenodd" d="M132.246 167.962V147.78H136.365V165.128C135.231 165.695 133.644 166.753 132.246 167.962ZM125.027 174.009C126.312 172.498 127.635 170.948 129.184 169.663V147.78H125.027V174.009ZM77.178 190.035C77.178 195.402 79.2945 200.542 83.1874 204.435C87.0803 208.328 92.1827 210.482 97.5874 210.482C99.8929 210.482 102.236 210.028 103.899 209.197V205.039C101.972 205.871 99.5906 206.362 97.5874 206.362C88.7811 206.362 81.3354 198.917 81.3354 190.072V186.369C81.3354 177.524 88.7811 170.079 97.5874 170.079C102.009 170.079 106.091 171.78 109.153 174.803C112.214 177.865 113.877 181.984 113.877 186.369V210.52H118.035V185.575C117.77 180.283 115.502 175.37 111.685 171.666C107.83 167.962 102.841 165.959 97.5874 165.959C92.2205 165.959 87.1181 168.076 83.1874 171.969C79.3323 175.861 77.178 180.964 77.178 186.406V190.035ZM139.049 180.132C140.901 178.243 143.32 177.184 145.701 177.184C150.841 177.184 154.809 181.191 154.809 186.293V189.997C154.809 195.137 150.803 199.106 145.701 199.106C143.244 199.106 140.863 197.745 138.973 195.288C137.31 193.134 136.252 190.186 136.063 187.54L132.737 191.66C133.417 194.797 135.043 197.82 137.348 199.899C139.729 202.054 142.715 203.263 145.701 203.263C153.033 203.263 158.967 197.329 158.967 190.035V186.331C158.967 182.854 157.569 179.565 155.036 177.033C152.504 174.501 149.178 173.102 145.701 173.102C143.509 173.102 140.069 173.896 135.912 177.6C134.816 178.734 132.208 181.342 130.62 183.194C127.937 186.104 124.082 190.45 120.794 194.872V201.335C124.422 196.611 126.539 194.003 130.016 189.997C133.039 186.406 136.857 182.022 139.049 180.132ZM41.348 172.346V167.433C37.6063 165.43 33.5244 164.561 28.1197 164.561C22.6016 164.561 17.348 166.564 13.3795 170.23C9.37323 173.934 7.1811 178.772 7.1811 183.912V185.235C7.1811 195.931 15.7228 204.624 26.2677 204.624C34.8472 204.624 38.3622 201.827 39.2693 200.92V188.485H25.285V192.605H35.3764V198.841H35.3386C34.0535 199.37 31.3323 200.428 26.2677 200.428C22.2614 200.428 18.4819 198.879 15.685 196.006C12.8504 193.172 11.3386 189.354 11.3386 185.197V183.874C11.3386 175.635 19.0488 168.643 28.1575 168.643C34.4315 168.68 38.1732 169.739 41.348 172.346ZM71.5087 177.184C73.0583 177.184 74.3811 177.449 75.4772 177.978C75.9685 176.693 76.5354 175.597 77.2913 174.35C76.1575 173.556 73.474 173.027 71.5087 173.027C63.9496 173.027 58.2803 178.734 58.2803 186.293V210.444H62.4V186.293C62.4 180.964 66.1417 177.184 71.5087 177.184ZM0 183.912V185.235C0 192.416 2.72126 199.106 7.63465 204.095C12.5858 209.046 19.2 211.805 26.2677 211.805C31.937 211.805 36.9638 210.52 41.2346 207.987C44.7118 205.871 46.2992 203.792 46.4126 203.603V181.342H25.285V185.461H42.2929V202.356C40.2898 204.359 35.5276 207.685 26.2677 207.685C20.2583 207.685 14.6646 205.38 10.5071 201.184C6.4252 196.989 4.15748 191.357 4.15748 185.272V183.95C4.15748 178.167 6.72756 172.46 11.263 168.227C15.874 163.918 21.8835 161.537 28.1575 161.537C34.0535 161.537 38.0976 162.406 41.3858 164.409V159.761C37.9465 158.287 33.8646 157.644 28.1197 157.644C12.8504 157.644 0 169.663 0 183.912ZM110.816 210.444V186.293C110.816 178.847 104.995 173.027 97.5496 173.027C94.0724 173.027 90.7843 174.425 88.2142 176.957C85.6819 179.528 84.2835 182.816 84.2835 186.255V189.997C84.2835 197.178 90.3685 203.225 97.5118 203.225C99.4772 203.225 102.161 202.734 103.824 201.373V197.065C102.198 198.387 99.8551 199.143 97.5118 199.143C92.4094 199.143 88.4031 195.137 88.4031 190.035V186.331C88.4031 181.191 92.4094 177.222 97.5118 177.222C102.614 177.222 106.62 181.228 106.62 186.331V210.482H110.816V210.444ZM71.5087 170.003C74.3055 170.003 76.7622 170.608 78.9543 171.855C79.9748 170.57 80.9953 169.55 81.789 168.756C79.4835 166.942 75.5528 165.883 71.5465 165.883C65.7638 165.883 60.548 167.962 56.8441 171.742C53.1402 175.446 51.137 180.624 51.137 186.331V210.482H55.2567V186.331C55.2189 176.731 61.9087 170.003 71.5087 170.003ZM160.101 171.931C156.246 168.038 151.106 165.883 145.701 165.883C141.77 165.883 137.839 167.357 135.647 168.794C131.112 171.78 127.446 175.068 120.756 183.685V189.883C126.425 182.513 131.754 176.731 135.836 173.518C138.482 171.364 142.261 170.041 145.701 170.041C154.545 170.041 161.991 177.524 161.991 186.331V190.035C161.991 194.419 160.29 198.501 157.153 201.6C154.091 204.624 150.009 206.324 145.701 206.324C138.482 206.324 132.057 201.335 130.356 194.57L127.446 198.085C129.562 205.228 137.272 210.444 145.701 210.444C151.106 210.444 156.208 208.29 160.101 204.435C163.994 200.504 166.148 195.402 166.148 189.997V186.293C166.148 180.926 163.994 175.786 160.101 171.931Z" fill="#00B45E"/>
<path fill-rule="evenodd" clip-rule="evenodd" d="M83.074 0C125.367 0 159.647 34.2803 159.647 76.5732C159.647 118.866 125.367 153.146 83.074 153.146C40.781 153.146 6.50073 118.866 6.50073 76.5732C6.50073 34.2803 40.781 0 83.074 0Z" fill="#029835"/>
<path fill-rule="evenodd" clip-rule="evenodd" d="M51.7417 47.5843H115.767V94.8661H51.7417V47.5843ZM94.7149 87.2315C94.0346 87.6472 93.4299 87.3827 92.8252 86.778L82.885 76.8756L72.7937 86.8535C72.1889 87.4961 71.5464 87.7984 70.8283 87.2693C70.7527 87.1937 69.5433 86.022 69.5055 85.9465C69.0897 85.2661 69.3921 84.6236 69.9968 84.0567L79.9748 74.0032L76.4598 70.526C72.9449 72.8693 69.2031 70.7906 66.8598 67.8425C65.8015 66.5575 64.4787 63.9118 64.0252 61.4173C63.7606 60.0189 63.7606 58.6961 64.1008 57.6C64.5165 56.0504 64.97 55.6346 66.5197 55.1811C67.6157 54.8787 68.9386 54.8409 70.337 55.1433C72.7937 55.5969 75.4393 56.9197 76.7244 57.9402C79.6724 60.3213 81.7512 64.0252 79.4078 67.578L82.885 71.0551L86.0598 67.8425C85.9842 66.3307 85.9842 64.5921 86.1732 63.874C86.3244 63.2315 86.6645 62.8913 87.5716 62.022L96.6803 53.9717C98.2677 52.3087 99.4015 53.4803 97.7008 55.0677L91.6913 60.737C91.011 61.3795 90.5575 61.9843 91.3512 62.7402C92.1449 63.5339 92.5984 63.0803 93.2409 62.4756L99.4771 56.2016C100.006 55.6724 100.611 55.5969 100.913 55.937C101.254 56.2394 101.178 56.8441 100.649 57.3354L94.3748 63.6095C93.7323 64.252 93.3165 64.7055 94.1102 65.4992C94.8661 66.2929 95.4708 65.8394 96.1134 65.1591L101.783 59.1118C103.37 57.411 104.542 58.5827 102.879 60.1701L94.7905 69.2787C93.959 70.1858 93.6189 70.526 92.9763 70.6772C92.2582 70.8661 90.5197 70.8661 89.0078 70.7906L85.7575 74.0032L95.6598 83.9433C96.3023 84.5858 96.5669 85.2283 96.0756 85.9087C96 86.022 94.7905 87.1937 94.7149 87.2315ZM54.5008 45.9213C54.0472 45.9213 53.9338 45.3543 54.5008 44.863L70.9417 29.5559H96.5669L113.008 44.863C113.613 45.3543 113.461 45.9213 113.008 45.9213H54.5008ZM54.2362 36.6614L54.3874 43.4646L66.8598 31.7858H59.4897C56.2771 31.7102 54.0094 33.4866 54.2362 36.6614ZM113.272 36.6614L113.121 43.4646L100.649 31.7858H108.057C111.269 31.7102 113.499 33.4866 113.272 36.6614ZM77.3291 34.9228H90.1795C90.8976 34.9228 91.4267 35.4898 91.4267 36.1701V38.2488H76.0819V36.1701C76.0819 35.4898 76.6488 34.9228 77.3291 34.9228Z" fill="white"/>
<path d="M45.5433 116.22H50.6079V124.271L50.4189 124.346C50.2677 124.422 50.0787 124.46 49.8898 124.535C49.7386 124.573 49.5118 124.611 49.285 124.687C48.8315 124.8 48.378 124.876 47.811 124.951L47.0173 125.065C46.7528 125.065 46.4504 125.065 46.148 125.102C45.0142 125.102 44.0315 124.951 43.1244 124.649C42.7087 124.498 42.2929 124.271 41.8772 124.044C41.4992 123.817 41.1591 123.553 40.8189 123.213C40.5921 122.986 40.4032 122.759 40.2142 122.494C40.0252 122.23 39.874 121.965 39.7228 121.663C39.5717 121.398 39.4205 121.058 39.3071 120.756C39.1937 120.416 39.0803 120.076 39.0047 119.735C38.9291 119.395 38.8535 119.017 38.8157 118.639C38.778 118.261 38.778 117.883 38.778 117.468C38.778 116.976 38.8157 116.485 38.8535 116.031C38.9291 115.578 39.0425 115.124 39.1559 114.709C39.2693 114.293 39.4583 113.915 39.6095 113.537C39.7984 113.197 40.0252 112.857 40.252 112.517C40.4787 112.214 40.7433 111.912 41.0079 111.647C41.3102 111.383 41.6126 111.156 41.915 110.929C42.2551 110.702 42.5953 110.513 42.9354 110.362C43.3134 110.211 43.6913 110.06 44.0693 109.946C44.4472 109.833 44.863 109.757 45.2787 109.72C45.6567 109.644 46.1102 109.644 46.526 109.644H47.2441C47.5087 109.682 47.7354 109.682 47.9622 109.72C48.1512 109.757 48.378 109.757 48.5669 109.833C48.7937 109.833 48.9827 109.909 49.1339 109.946C49.3228 109.984 49.474 110.022 49.6252 110.098C49.7764 110.135 49.9276 110.211 50.0787 110.287L50.2677 110.362L50.2299 110.627L49.6252 112.932L49.5496 113.272L49.2095 113.121C49.0961 113.083 48.9827 113.046 48.8693 112.97C48.7937 112.932 48.6425 112.894 48.5291 112.857C48.4157 112.819 48.2646 112.781 48.1134 112.781C48 112.743 47.8488 112.705 47.6598 112.705C47.5087 112.668 47.3197 112.668 47.1307 112.63H46.5638C46.2614 112.63 45.9591 112.63 45.6567 112.705C45.3921 112.743 45.1276 112.819 44.863 112.894C44.5984 113.008 44.3717 113.121 44.1449 113.272C43.9181 113.386 43.7291 113.575 43.5402 113.764C43.3512 113.953 43.1622 114.179 43.011 114.406C42.8598 114.671 42.7465 114.935 42.6331 115.238C42.5197 115.54 42.4441 115.88 42.4063 116.258C42.3307 116.598 42.2929 117.014 42.2929 117.43C42.2929 117.846 42.3307 118.224 42.3685 118.564C42.4441 118.904 42.5197 119.244 42.5953 119.546C42.7087 119.849 42.822 120.113 42.9732 120.378C43.0866 120.605 43.2378 120.831 43.4268 121.02C43.6157 121.209 43.8047 121.398 43.9937 121.55C44.1827 121.663 44.4095 121.814 44.6362 121.89C44.9008 122.003 45.1276 122.079 45.3921 122.117C45.6567 122.154 45.9213 122.192 46.1858 122.192H46.6394C46.7906 122.154 46.9039 122.154 47.0551 122.154C47.1685 122.117 47.2441 122.117 47.3197 122.079V119.017H45.2409V116.22H45.5433ZM58.8095 113.613H58.9606L59.1874 113.688V116.939L58.8472 116.901C58.7717 116.901 58.7339 116.863 58.6961 116.863H58.5449C58.4693 116.863 58.3937 116.825 58.3559 116.825H58.1669C57.978 116.825 57.789 116.863 57.6378 116.901C57.4866 116.939 57.3354 117.014 57.1843 117.09C57.0331 117.165 56.9197 117.279 56.8063 117.392C56.6929 117.505 56.5795 117.657 56.5039 117.846C56.4283 117.997 56.3528 118.186 56.315 118.413C56.2772 118.677 56.2394 118.904 56.2394 119.168V124.951H52.8378V116.447C52.8378 116.183 52.8378 115.88 52.8 115.616V114.822C52.7622 114.595 52.7622 114.331 52.7622 114.104V113.802H55.748V114.066L55.8236 114.935C55.8992 114.822 56.0126 114.709 56.126 114.595C56.2772 114.406 56.4283 114.255 56.5795 114.142C56.7685 114.028 56.9575 113.915 57.1465 113.839C57.3354 113.726 57.5244 113.688 57.6756 113.65C57.8646 113.575 58.0913 113.575 58.2803 113.575H58.6205C58.6961 113.575 58.7339 113.613 58.8095 113.613ZM69.052 117.392C69.0898 117.657 69.0898 117.959 69.0898 118.261V123.024C69.1276 123.175 69.1276 123.326 69.1276 123.477C69.1276 123.591 69.1276 123.742 69.1654 123.893C69.1654 124.006 69.1654 124.12 69.2032 124.233C69.2032 124.384 69.2032 124.498 69.2409 124.573L69.3165 124.951H66.1795L66.1417 124.687L66.0283 124.157C65.915 124.271 65.7638 124.384 65.6504 124.498H65.6126C65.4614 124.611 65.3102 124.687 65.1213 124.762C64.9701 124.838 64.7811 124.913 64.5921 124.989L64.0252 125.102C63.7984 125.14 63.6095 125.14 63.3827 125.14C62.8535 125.14 62.4 125.027 61.9465 124.876L61.3795 124.535C61.1906 124.422 61.0394 124.271 60.8504 124.12C60.6992 123.931 60.5858 123.779 60.4724 123.591C60.3591 123.402 60.2457 123.213 60.1701 122.986C60.0945 122.797 60.0567 122.57 59.9811 122.343C59.9433 122.154 59.9433 121.928 59.9433 121.663C59.9433 121.323 59.9811 120.983 60.0567 120.68C60.1323 120.34 60.2457 120.038 60.3969 119.773C60.548 119.509 60.737 119.244 60.9638 119.017C61.1906 118.791 61.4173 118.602 61.6819 118.413L62.589 117.959C62.8913 117.846 63.2315 117.732 63.6095 117.657C63.9874 117.581 64.3654 117.505 64.7433 117.468C65.0457 117.43 65.348 117.43 65.6882 117.392C65.6882 117.354 65.6504 117.317 65.6504 117.279C65.6504 117.128 65.6126 117.014 65.5748 116.863C65.537 116.787 65.4614 116.674 65.3858 116.598C65.3102 116.523 65.2346 116.447 65.1213 116.372C65.0079 116.334 64.8567 116.258 64.7055 116.22C64.5165 116.183 64.3276 116.183 64.1008 116.183C63.874 116.183 63.6472 116.183 63.4205 116.22C63.1937 116.258 63.0047 116.296 62.778 116.372C62.5512 116.447 62.3622 116.485 62.1732 116.598C61.9843 116.674 61.8331 116.75 61.6819 116.863L61.3417 117.052L61.2283 116.674L60.6992 114.86L60.6236 114.633L60.8126 114.52C60.9638 114.444 61.0772 114.368 61.2661 114.293C61.4173 114.217 61.5685 114.142 61.7575 114.066C61.9465 113.991 62.1732 113.953 62.3622 113.877C62.589 113.839 62.8157 113.764 63.0425 113.726C63.3071 113.688 63.5339 113.65 63.7984 113.613C64.063 113.613 64.3276 113.575 64.6299 113.575C65.0457 113.575 65.4614 113.613 65.8016 113.688C66.1417 113.764 66.4819 113.839 66.7843 113.991C67.0866 114.104 67.3134 114.255 67.578 114.444C67.8047 114.595 67.9937 114.822 68.1827 115.049C68.3339 115.238 68.485 115.502 68.5984 115.729C68.7118 115.994 68.8252 116.258 68.9008 116.561C68.9764 116.825 69.0142 117.09 69.052 117.392ZM65.726 121.436C65.7638 121.285 65.7638 121.172 65.7638 121.02V119.811H65.537C65.348 119.849 65.1591 119.849 65.0079 119.887C64.8189 119.924 64.6677 119.962 64.5165 120C64.3654 120.038 64.2142 120.076 64.1008 120.151C63.9496 120.227 63.8362 120.265 63.7606 120.378C63.6472 120.454 63.5717 120.529 63.4961 120.642C63.4205 120.718 63.3827 120.831 63.3449 120.945C63.3071 121.096 63.2693 121.247 63.2693 121.398C63.2693 121.55 63.3071 121.663 63.3449 121.776C63.3449 121.89 63.3827 122.003 63.4205 122.079C63.4961 122.154 63.5339 122.23 63.6095 122.268C63.6472 122.343 63.7228 122.381 63.7984 122.419C63.9496 122.494 64.1008 122.532 64.2898 122.532H64.5165C64.5921 122.494 64.6677 122.494 64.7811 122.457L65.0079 122.343C65.0835 122.305 65.1591 122.268 65.2346 122.192C65.3102 122.154 65.3858 122.079 65.4614 122.003C65.4992 121.928 65.5748 121.814 65.6126 121.739C65.6504 121.625 65.6882 121.55 65.726 121.436ZM74.8724 109.417V114.557L74.9102 114.52C75.137 114.331 75.4016 114.142 75.6661 113.991C75.9307 113.877 76.2331 113.764 76.5354 113.688C76.8378 113.613 77.178 113.575 77.5559 113.575C77.8583 113.575 78.1606 113.613 78.4252 113.688C78.7276 113.764 78.9921 113.839 79.2567 113.991C79.5213 114.142 79.748 114.293 79.9748 114.482C80.2016 114.671 80.4283 114.898 80.5795 115.162C80.7685 115.427 80.9197 115.691 81.0709 115.994C81.222 116.258 81.3354 116.598 81.411 116.939C81.5244 117.279 81.6 117.619 81.6378 117.997C81.6756 118.375 81.7134 118.753 81.7134 119.168C81.7134 119.546 81.7134 119.924 81.6378 120.302C81.6 120.642 81.5622 120.983 81.4866 121.285C81.3732 121.625 81.2976 121.928 81.1843 122.192C81.0709 122.494 80.9197 122.721 80.7685 122.986C80.6173 123.213 80.4661 123.439 80.315 123.628C80.126 123.817 79.937 124.006 79.748 124.157C79.5591 124.346 79.3701 124.498 79.1433 124.611C78.9165 124.724 78.7276 124.838 78.5008 124.913C78.274 124.989 78.0472 125.027 77.8205 125.065C77.5559 125.14 77.3291 125.14 77.1024 125.14C76.8 125.14 76.4976 125.102 76.1953 125.027C75.8929 124.989 75.6283 124.876 75.3638 124.724C75.0992 124.573 74.8346 124.384 74.6079 124.157C74.5323 124.082 74.4945 124.044 74.4567 123.968L74.3811 124.649L74.3433 124.951H71.3953V124.195C71.4331 124.044 71.4331 123.893 71.4331 123.742V123.213L71.4709 122.683V109.115H74.8724V109.417ZM74.9102 117.921C74.8724 118.072 74.8724 118.224 74.8724 118.375V120.416C74.8724 120.605 74.8724 120.794 74.9102 120.945C74.948 121.096 75.0236 121.247 75.0992 121.398C75.137 121.55 75.2126 121.663 75.326 121.776C75.4016 121.89 75.515 121.965 75.6283 122.079C75.7795 122.154 75.8929 122.192 76.0063 122.23C76.1575 122.268 76.3087 122.305 76.4598 122.305C76.6488 122.305 76.8378 122.268 76.989 122.23C77.1402 122.154 77.2913 122.079 77.4425 121.965C77.5559 121.852 77.6693 121.739 77.7827 121.55C77.8961 121.398 77.9717 121.209 78.0472 120.983C78.1228 120.756 78.1984 120.491 78.2362 120.227C78.274 119.924 78.3118 119.622 78.3118 119.282C78.3118 119.093 78.274 118.866 78.274 118.677L78.1606 118.11C78.1228 117.921 78.085 117.77 78.0095 117.619C77.9717 117.468 77.8961 117.317 77.8205 117.165C77.7449 117.052 77.6315 116.939 77.5559 116.863C77.4425 116.75 77.3669 116.674 77.2535 116.598C77.1402 116.523 77.0268 116.485 76.8756 116.447C76.7622 116.409 76.611 116.409 76.4598 116.409C76.3465 116.409 76.2709 116.409 76.1575 116.447C76.0819 116.447 75.9685 116.485 75.8929 116.523C75.7795 116.598 75.7039 116.636 75.6283 116.712C75.5528 116.75 75.4394 116.825 75.3638 116.939C75.2882 117.014 75.2504 117.09 75.1748 117.203C75.0992 117.317 75.0614 117.43 75.0236 117.543C74.9858 117.657 74.948 117.808 74.9102 117.921ZM87.1559 118.866V124.951H83.7165V109.795H92.1449V112.743H87.1559V115.956H91.8047V118.866H87.1559ZM96.8315 113.953C97.474 113.688 98.1543 113.575 98.9102 113.575C99.326 113.575 99.6661 113.613 100.044 113.688C100.384 113.726 100.724 113.839 101.027 113.991C101.367 114.142 101.631 114.293 101.896 114.482C102.161 114.709 102.425 114.935 102.652 115.162C102.879 115.427 103.068 115.729 103.257 116.031C103.408 116.334 103.559 116.636 103.672 116.976C103.786 117.354 103.861 117.694 103.937 118.072C103.975 118.45 104.013 118.866 104.013 119.282C104.013 119.698 104.013 120.076 103.937 120.454C103.899 120.831 103.824 121.172 103.71 121.474C103.635 121.814 103.521 122.117 103.37 122.381C103.219 122.646 103.068 122.91 102.917 123.137C102.728 123.364 102.539 123.591 102.35 123.779C102.161 123.968 101.934 124.157 101.707 124.271C101.48 124.422 101.254 124.573 101.027 124.687C100.8 124.762 100.535 124.876 100.309 124.951C100.044 124.989 99.7795 125.065 99.5528 125.102C99.2882 125.14 99.0614 125.14 98.7969 125.14C98.4189 125.14 98.0787 125.102 97.7386 125.027C97.3606 124.989 97.0583 124.876 96.7181 124.762C96.4157 124.611 96.1134 124.46 95.8488 124.271C95.5465 124.082 95.3197 123.855 95.0929 123.628C94.8283 123.364 94.6394 123.099 94.4504 122.797C94.2614 122.494 94.1102 122.154 93.9969 121.814C93.8835 121.436 93.7701 121.058 93.7323 120.68C93.6567 120.265 93.6189 119.849 93.6189 119.395C93.6189 118.942 93.6567 118.526 93.7323 118.11C93.7701 117.694 93.8835 117.317 94.0346 116.939C94.148 116.598 94.2992 116.258 94.4882 115.956C94.6772 115.654 94.9039 115.351 95.1307 115.124C95.3575 114.86 95.622 114.633 95.9244 114.444C96.189 114.255 96.4913 114.104 96.8315 113.953ZM100.46 120.605C100.535 120.227 100.573 119.773 100.573 119.32C100.573 119.131 100.573 118.942 100.535 118.753C100.535 118.564 100.498 118.375 100.46 118.148C100.422 117.997 100.384 117.808 100.346 117.619C100.271 117.468 100.195 117.317 100.157 117.165C100.082 117.014 100.006 116.863 99.8929 116.75C99.8173 116.636 99.7039 116.561 99.5906 116.485C99.515 116.409 99.4016 116.334 99.2504 116.296C99.137 116.258 98.9858 116.22 98.8724 116.22C98.7213 116.22 98.6079 116.258 98.4945 116.296C98.3811 116.296 98.2677 116.334 98.1921 116.409C98.0787 116.447 98.0032 116.523 97.9276 116.598C97.852 116.674 97.7764 116.75 97.7008 116.863C97.6252 116.939 97.5496 117.052 97.5118 117.165C97.4362 117.279 97.3984 117.43 97.3228 117.543C97.285 117.694 97.2472 117.846 97.2094 117.959C97.1717 118.11 97.1339 118.261 97.1339 118.413C97.0961 118.564 97.0961 118.753 97.0583 118.904V119.357C97.0583 119.584 97.0583 119.811 97.0961 120C97.0961 120.227 97.1339 120.416 97.1717 120.605C97.2472 120.794 97.285 120.983 97.3228 121.172L97.5496 121.625C97.6252 121.776 97.7008 121.89 97.8142 122.003C97.8898 122.079 98.0032 122.192 98.1165 122.268C98.2299 122.343 98.3433 122.381 98.4567 122.419C98.5701 122.457 98.6835 122.494 98.8346 122.494C98.9858 122.494 99.0992 122.457 99.2126 122.419C99.326 122.381 99.4394 122.343 99.5528 122.268C99.6661 122.192 99.7417 122.079 99.8551 122.003C99.9307 121.89 100.006 121.739 100.082 121.625C100.157 121.474 100.233 121.323 100.309 121.134C100.346 120.983 100.422 120.794 100.46 120.605ZM108.51 113.953C109.153 113.688 109.871 113.575 110.627 113.575C111.005 113.575 111.383 113.613 111.723 113.688C112.063 113.726 112.403 113.839 112.743 113.991C113.046 114.142 113.348 114.293 113.613 114.482C113.877 114.709 114.142 114.935 114.369 115.162C114.557 115.427 114.784 115.729 114.935 116.031C115.124 116.334 115.238 116.636 115.389 116.976C115.502 117.354 115.578 117.694 115.616 118.072C115.691 118.45 115.729 118.866 115.729 119.282C115.729 119.698 115.691 120.076 115.654 120.454C115.578 120.831 115.502 121.172 115.427 121.474C115.313 121.814 115.2 122.117 115.087 122.381C114.935 122.646 114.784 122.91 114.595 123.137C114.444 123.364 114.255 123.591 114.066 123.779C113.839 123.968 113.65 124.157 113.424 124.271C113.197 124.422 112.97 124.573 112.743 124.687C112.479 124.762 112.252 124.876 111.987 124.951C111.761 124.989 111.496 125.065 111.231 125.102C111.005 125.14 110.74 125.14 110.513 125.14C110.135 125.14 109.757 125.102 109.417 125.027C109.077 124.989 108.737 124.876 108.435 124.762C108.094 124.611 107.83 124.46 107.528 124.271C107.263 124.082 106.998 123.855 106.772 123.628C106.545 123.364 106.356 123.099 106.167 122.797C105.978 122.494 105.827 122.154 105.713 121.814C105.562 121.436 105.487 121.058 105.411 120.68C105.373 120.265 105.335 119.849 105.335 119.395C105.335 118.942 105.373 118.526 105.411 118.11C105.487 117.694 105.6 117.317 105.713 116.939C105.865 116.598 106.016 116.258 106.205 115.956C106.394 115.654 106.583 115.351 106.809 115.124C107.074 114.86 107.339 114.633 107.603 114.444C107.906 114.255 108.208 114.104 108.51 113.953ZM112.139 120.605C112.252 120.227 112.29 119.773 112.29 119.32C112.29 119.131 112.29 118.942 112.252 118.753C112.252 118.564 112.214 118.375 112.176 118.148C112.139 117.997 112.101 117.808 112.025 117.619C111.987 117.468 111.912 117.317 111.836 117.165C111.761 117.014 111.685 116.863 111.609 116.75C111.496 116.636 111.42 116.561 111.307 116.485C111.194 116.409 111.08 116.334 110.967 116.296C110.854 116.258 110.702 116.22 110.551 116.22C110.438 116.22 110.324 116.258 110.211 116.296C110.098 116.296 109.984 116.334 109.909 116.409C109.795 116.447 109.72 116.523 109.606 116.598C109.531 116.674 109.455 116.75 109.38 116.863C109.342 116.939 109.266 117.052 109.191 117.165C109.153 117.279 109.077 117.43 109.039 117.543C109.002 117.694 108.964 117.846 108.926 117.959L108.813 118.413C108.813 118.564 108.775 118.753 108.775 118.904V120C108.813 120.227 108.85 120.416 108.888 120.605C108.926 120.794 108.964 120.983 109.039 121.172C109.115 121.323 109.153 121.474 109.266 121.625C109.342 121.776 109.417 121.89 109.493 122.003C109.606 122.079 109.72 122.192 109.795 122.268C109.909 122.343 110.022 122.381 110.135 122.419C110.287 122.457 110.4 122.494 110.551 122.494C110.665 122.494 110.816 122.457 110.929 122.419C111.043 122.381 111.156 122.343 111.231 122.268C111.345 122.192 111.458 122.079 111.534 122.003C111.647 121.89 111.723 121.739 111.798 121.625C111.874 121.474 111.95 121.323 111.987 121.134C112.063 120.983 112.101 120.794 112.139 120.605ZM124.195 109.115H127.294V123.213C127.332 123.402 127.332 123.553 127.332 123.742C127.332 124.044 127.332 124.346 127.37 124.611V124.951H124.309V124.649L124.233 123.931L123.893 124.271C123.704 124.422 123.553 124.535 123.364 124.649C123.175 124.762 122.986 124.838 122.759 124.913C122.57 124.989 122.343 125.027 122.117 125.102C121.928 125.102 121.701 125.14 121.436 125.14C121.134 125.14 120.794 125.102 120.529 125.027C120.227 124.951 119.924 124.838 119.66 124.724C119.395 124.573 119.131 124.422 118.904 124.195C118.677 124.006 118.45 123.779 118.261 123.515C118.072 123.288 117.921 122.986 117.77 122.683C117.619 122.381 117.468 122.079 117.392 121.739H117.354C117.279 121.398 117.203 121.02 117.128 120.642C117.09 120.265 117.052 119.849 117.052 119.433C117.052 118.979 117.09 118.564 117.165 118.148C117.203 117.732 117.317 117.317 117.43 116.976C117.543 116.598 117.694 116.296 117.846 115.956C117.997 115.654 118.186 115.389 118.413 115.124C118.602 114.86 118.828 114.671 119.093 114.482C119.32 114.255 119.584 114.104 119.849 113.991C120.151 113.839 120.416 113.764 120.718 113.688C121.02 113.613 121.323 113.575 121.625 113.575C121.852 113.575 122.041 113.613 122.23 113.613C122.457 113.65 122.646 113.688 122.835 113.764C122.986 113.802 123.175 113.877 123.326 113.953C123.477 114.028 123.628 114.142 123.78 114.255C123.817 114.255 123.855 114.293 123.893 114.331V109.115H124.195ZM123.855 120.831C123.855 120.68 123.893 120.491 123.893 120.302V118.375C123.893 118.224 123.855 118.035 123.855 117.883C123.817 117.732 123.78 117.619 123.742 117.505C123.704 117.354 123.628 117.241 123.591 117.165C123.515 117.052 123.477 116.939 123.402 116.863C123.326 116.787 123.25 116.712 123.137 116.674C123.061 116.598 122.986 116.561 122.91 116.523C122.721 116.447 122.532 116.409 122.343 116.409C122.192 116.409 122.041 116.409 121.89 116.447C121.776 116.485 121.663 116.561 121.55 116.598C121.436 116.674 121.323 116.787 121.247 116.863C121.134 116.976 121.058 117.09 120.983 117.241C120.907 117.354 120.831 117.505 120.756 117.657C120.718 117.808 120.643 117.997 120.605 118.186C120.567 118.375 120.529 118.564 120.529 118.753C120.491 118.979 120.491 119.168 120.491 119.395C120.491 119.735 120.491 120 120.529 120.265C120.567 120.529 120.643 120.756 120.718 120.983C120.794 121.209 120.869 121.398 120.983 121.55C121.096 121.701 121.209 121.852 121.361 121.965C121.474 122.079 121.625 122.154 121.776 122.192C121.928 122.268 122.117 122.305 122.306 122.305C122.381 122.305 122.494 122.268 122.57 122.268C122.646 122.23 122.759 122.23 122.835 122.192C122.91 122.154 123.024 122.117 123.099 122.041C123.175 122.003 123.25 121.928 123.326 121.852H123.364C123.439 121.776 123.477 121.701 123.553 121.587C123.628 121.512 123.666 121.398 123.742 121.285V121.247C123.78 121.134 123.817 120.983 123.855 120.831Z" fill="white"/>
</svg>
