<svg width="794" height="293" viewBox="0 0 794 293" fill="none" xmlns="http://www.w3.org/2000/svg">
<path d="M362.608 290.48V145.309H450.935V173.58H392.315V203.627H438.387V231.898H392.315V290.48H362.608ZM736.29 292.786C722.872 292.786 711.496 287.57 702.161 277.063C692.863 266.556 688.176 254.046 688.176 239.457C688.176 224.868 692.863 212.358 702.161 201.851C711.496 191.381 722.872 186.128 736.29 186.128C742.677 186.128 748.8 187.564 753.751 190.21C759.005 192.817 762.822 196.03 765.732 199.81V137.145H793.701V290.48H765.732V279.104C763.087 282.884 759.005 286.096 753.751 288.704C748.8 291.35 742.98 292.786 736.29 292.786ZM723.742 259.564C728.391 264.817 734.816 267.425 742.413 267.425C749.972 267.425 756.397 264.817 761.046 259.564C765.732 254.31 768.038 247.621 768.038 239.457C768.038 231.293 765.732 224.603 761.046 219.35C756.397 214.096 749.972 211.488 742.413 211.488C734.816 211.488 728.391 214.096 723.742 219.35C719.093 224.603 716.75 231.293 716.75 239.457C716.447 247.621 718.791 254.31 723.742 259.564ZM661.644 277.366C651.175 287.57 638.324 292.786 623.471 292.786C608.617 292.786 595.805 287.57 585.298 277.366C574.791 267.161 569.537 254.31 569.537 239.457C569.537 224.603 574.791 212.055 585.298 201.586C595.805 191.079 608.617 186.128 623.471 186.128C638.324 186.128 650.872 191.381 661.644 201.586C672.151 212.055 677.405 224.603 677.405 239.457C677.405 254.31 672.151 267.161 661.644 277.366ZM623.471 266.556C630.765 266.556 636.586 263.948 641.537 258.997C646.488 253.743 648.831 247.318 648.831 239.457C648.831 231.595 646.488 225.17 641.537 219.917C636.586 214.701 630.765 212.358 623.471 212.358C616.176 212.358 610.054 214.966 605.102 219.917C600.151 225.17 597.808 231.595 597.808 239.457C597.808 247.318 600.151 253.743 605.102 258.997C610.054 263.948 616.176 266.556 623.471 266.556ZM543.043 277.366C532.535 287.57 519.723 292.786 504.831 292.786C489.978 292.786 477.165 287.57 466.658 277.366C456.151 267.161 450.935 254.31 450.935 239.457C450.935 224.603 456.151 212.055 466.658 201.586C477.165 191.079 489.978 186.128 504.831 186.128C519.723 186.128 532.535 191.381 543.043 201.586C553.512 212.055 558.765 224.603 558.765 239.457C558.765 254.31 553.512 267.161 543.043 277.366ZM505.134 266.556C512.428 266.556 518.249 263.948 523.2 258.997C528.151 253.743 530.494 247.318 530.494 239.457C530.494 231.595 528.151 225.17 523.2 219.917C518.249 214.701 512.428 212.358 505.134 212.358C497.839 212.358 491.717 214.966 486.765 219.917C481.814 225.17 479.471 231.595 479.471 239.457C479.471 247.318 481.814 253.743 486.765 258.997C491.452 263.948 497.575 266.556 505.134 266.556ZM242.23 1.30884H37.6063L0 56.4143C0 56.4143 7.86142 215.57 7.86142 268.899C7.86142 277.63 18.6709 292.786 27.0992 292.786H252.132C260.598 292.786 271.37 277.366 271.37 268.899C271.37 215.268 279.231 56.4143 279.231 56.4143L242.23 1.30884ZM200.239 60.4962H80.1638V33.397C80.1638 28.7104 83.9433 24.6285 88.8945 24.6285H191.509C196.157 24.6285 200.239 28.4458 200.239 33.397V60.4962Z" fill="#EE4E2C"/>
<path fill-rule="evenodd" clip-rule="evenodd" d="M113.386 189.907C113.386 193.422 94.4504 213.794 94.4504 213.794L91.5402 292.786H70.2614L67.3512 213.794C67.3512 213.794 48.378 193.422 48.378 189.907V183.784L50.4189 98.1026C50.4189 96.9309 51.2882 96.0616 52.4598 96.0616H60.0567C60.3213 96.0616 60.6236 96.0616 60.6236 96.364C61.7953 96.6286 62.9669 96.9309 63.2693 98.1026V100.144C63.2693 100.144 63.5339 117.34 63.8362 135.104C64.1386 152.603 64.7055 170.67 64.7055 171.539C65.0079 172.144 67.9181 174.751 70.2614 174.449C72.8693 174.449 75.7795 171.274 75.7795 171.274V98.6695C75.7795 96.0616 79.8614 95.7593 79.8614 95.7593H82.2047C82.2047 95.7593 86.2866 96.0616 86.2866 98.6695V171.236C86.2866 171.236 89.1969 174.184 91.8047 174.449C94.4504 174.449 97.0583 171.841 97.3606 171.539C97.663 169.498 98.7969 100.144 98.7969 100.144V98.1026C99.0992 96.9309 100.271 96.3262 101.443 96.3262C101.745 96.3262 101.745 96.0616 102.009 96.0616H109.606C110.778 96.0616 111.647 96.9309 111.647 98.1026L113.688 183.784C113.386 183.784 113.386 187.299 113.386 189.907ZM231.723 154.644C231.723 186.43 211.313 208.578 202.583 216.742C200.239 219.047 198.501 222.26 198.501 226.04C197.934 242.103 195.893 285.794 195.591 292.786H176.655C176.353 285.794 174.614 242.065 173.707 226.04C173.443 222.562 171.969 219.047 169.625 216.742C160.894 208.578 140.485 186.128 140.485 154.644C140.485 114.43 168.189 96.3262 185.953 96.3262C204.019 96.3262 231.723 114.43 231.723 154.644Z" fill="#FEFEFE"/>
<path d="M618.52 41.0695C609.184 41.0695 600.756 45.038 594.973 51.3498V44.0175C594.973 37.4033 584.353 37.3656 584.353 44.0175V130.72C584.353 137.334 594.973 137.372 594.973 130.72V92.0931C600.756 98.4427 609.184 102.373 618.52 102.373C635.906 102.373 650.041 88.6537 650.041 71.7215C650.041 54.827 635.906 41.0695 618.52 41.0695ZM618.52 91.2994C607.408 91.2994 598.375 82.5309 598.375 71.7215C598.375 62.0081 605.707 53.8821 615.307 52.3703H615.458C616.479 52.2191 617.499 52.1435 618.52 52.1435C626.759 52.1435 633.827 56.9435 636.964 63.8222V63.9356C638.06 66.3167 638.665 68.9624 638.665 71.7215C638.665 82.5309 629.631 91.2994 618.52 91.2994ZM540.246 102.411C522.86 102.411 508.724 88.6537 508.724 71.7215C508.724 54.827 522.86 41.0695 540.246 41.0695C557.631 41.0695 571.805 54.827 571.805 71.7215C571.805 88.6537 557.631 102.411 540.246 102.411ZM540.246 52.1435C529.134 52.1435 520.101 60.912 520.101 71.7215C520.101 82.5309 529.134 91.2994 540.246 91.2994C551.357 91.2994 560.391 82.5309 560.391 71.7215C560.391 60.912 551.357 52.1435 540.246 52.1435ZM793.701 71.1167C793.436 57.0191 786.028 44.2821 770.646 41.4474C757.417 39.0285 741.921 45.8317 736.29 57.8884C730.431 70.3986 732.888 87.5955 744.454 96.3262C756.926 105.737 776.428 102.827 789.279 95.8726C795.213 92.6222 789.883 83.7026 783.912 86.9529C775.748 91.375 765.165 93.5671 756.057 90.6191C749.216 88.3892 745.398 82.6821 744.265 76.2947H788.409C791.206 76.2947 793.739 73.9136 793.701 71.1167ZM744.643 65.9766C744.718 65.5608 744.831 65.1829 744.945 64.8427C747.477 56.4144 756.17 51.5388 764.976 51.312C775.068 51.0474 780.737 57.8128 782.476 65.9766H744.643ZM723.061 71.1923C722.797 57.0947 715.389 44.3955 700.006 41.5608C686.778 39.1041 671.282 45.9073 665.65 57.964C659.792 70.4742 662.249 87.6711 673.814 96.4018C686.287 105.851 705.827 102.94 718.639 95.9482C724.573 92.6978 719.244 83.7781 713.272 87.0285C705.146 91.4884 694.526 93.6427 685.417 90.6947C678.614 88.4648 674.759 82.7577 673.625 76.3703H717.77C720.567 76.3703 723.099 73.9892 723.061 71.1923ZM674.003 66.0522C674.079 65.6364 674.192 65.2963 674.306 64.9183C676.838 56.5278 685.531 51.6522 694.337 51.4254C704.428 51.1608 710.098 57.9262 711.874 66.0522H674.003ZM496.252 61.2522V97.0821C496.252 103.847 485.669 103.847 485.669 97.0821V61.9703C485.291 55.0159 479.395 51.8411 479.169 51.7656C471.647 48.4774 457.928 49.9514 449.726 60.3451V97.0821C449.726 103.847 439.143 103.847 439.143 97.0821V5.05059C439.143 -1.67697 449.726 -1.67697 449.726 5.05059V46.3986C462.765 37.7057 479.32 38.6884 487.068 44.0175C487.068 44.0175 496.441 49.1199 496.252 61.2522ZM421.72 9.28366C411.326 -2.2061 389.48 -2.50846 376.819 5.50413C364.687 13.2144 359.811 30.5624 370.129 41.5986C382.904 55.2427 407.773 50.3671 417.827 67.753C425.121 80.3388 413.707 91.564 400.894 91.8285C390.841 92.0553 378.482 88.6915 371.565 81.5104C366.917 76.6726 359.433 83.9293 364.082 88.7671C374.362 99.4254 393.26 104.15 407.962 101.391C421.682 98.8585 432.756 86.0081 430.488 72.2506C427.691 55.1293 410.494 46.8522 394.998 42.3545C383.735 39.0663 367.597 31.6963 378.406 18.0522C385.965 8.48996 405.808 7.24272 414.236 16.5404C418.734 21.4915 426.217 14.2348 421.72 9.28366Z" fill="#EE4E2C"/>
</svg>
